HIERARCHY
ROOT Hips
{
	OFFSET 0.000000 0.000000 0.000000
	CHANNELS 6 Xposition Yposition Zposition Zrotation Yrotation Xrotation 
	JOINT Spine1
	{
		OFFSET -0.013727 5.003762 -0.053727
		CHANNELS 3 Zrotation Yrotation Xrotation
		JOINT Spine2
		{
			OFFSET -0.000000 7.125302 -0.029825
			CHANNELS 3 Zrotation Yrotation Xrotation
			JOINT Chest
			{
				OFFSET -0.000001 7.550065 -0.815971
				CHANNELS 3 Zrotation Yrotation Xrotation
				JOINT Neck1
				{
					OFFSET -0.181676 26.311296 -0.553348
					CHANNELS 3 Zrotation Yrotation Xrotation
					JOINT Neck2
					{
						OFFSET -0.000003 7.709399 2.302586
						CHANNELS 3 Zrotation Yrotation Xrotation
						JOINT Head
						{
							OFFSET -0.000005 6.128914 1.953709
							CHANNELS 3 Zrotation Yrotation Xrotation
							JOINT HeadEnd
							{
								OFFSET 0.003598 16.065401 -1.835379
								CHANNELS 3 Zrotation Yrotation Xrotation
								End Site
								{
									OFFSET 0.000000 0.000000 0.000000
								}
							}
							JOINT Jaw
							{
								OFFSET 0.002637 0.475591 3.094941
								CHANNELS 3 Zrotation Yrotation Xrotation
								End Site
								{
									OFFSET 0.000000 0.000000 0.000000
								}
							}
							JOINT LeftEye
							{
								OFFSET 3.206381 5.380207 7.586883
								CHANNELS 3 Zrotation Yrotation Xrotation
								End Site
								{
									OFFSET 0.000000 0.000000 0.000000
								}
							}
							JOINT RightEye
							{
								OFFSET -3.222440 5.361867 7.558233
								CHANNELS 3 Zrotation Yrotation Xrotation
								End Site
								{
									OFFSET 0.000000 0.000000 0.000000
								}
							}
						}
					}
				}
				JOINT LeftShoulder
				{
					OFFSET 1.621652 23.237165 5.113413
					CHANNELS 3 Zrotation Yrotation Xrotation
					JOINT LeftArm
					{
						OFFSET 14.919845 -0.000000 -5.502326
						CHANNELS 3 Zrotation Yrotation Xrotation
						JOINT LeftForeArm
						{
							OFFSET 28.739309 0.000003 -0.002588
							CHANNELS 3 Zrotation Yrotation Xrotation
							JOINT LeftHand
							{
								OFFSET 27.093983 -0.000004 0.002608
								CHANNELS 3 Zrotation Yrotation Xrotation
								JOINT LeftHandThumb1
								{
									OFFSET 2.276480 -1.392046 3.191413
									CHANNELS 3 Zrotation Yrotation Xrotation
									JOINT LeftHandThumb2
									{
										OFFSET 4.012841 -1.828125 1.641655
										CHANNELS 3 Zrotation Yrotation Xrotation
										JOINT LeftHandThumb3
										{
											OFFSET 2.798516 0.000000 -0.000003
											CHANNELS 3 Zrotation Yrotation Xrotation
											JOINT LeftHandThumbEnd
											{
												OFFSET 3.180791 -0.000001 0.000003
												CHANNELS 3 Zrotation Yrotation Xrotation
												End Site
												{
													OFFSET 0.000000 0.000000 0.000000
												}
											}
										}
									}
								}
								JOINT LeftHandIndex1
								{
									OFFSET 3.247553 -0.531999 2.296170
									CHANNELS 3 Zrotation Yrotation Xrotation
									JOINT LeftHandIndex2
									{
										OFFSET 6.364580 0.012062 0.178600
										CHANNELS 3 Zrotation Yrotation Xrotation
										JOINT LeftHandIndex3
										{
											OFFSET 3.662367 0.000001 -0.000000
											CHANNELS 3 Zrotation Yrotation Xrotation
											JOINT LeftHandIndex4
											{
												OFFSET 2.329243 0.000003 0.000004
												CHANNELS 3 Zrotation Yrotation Xrotation
												JOINT LeftHandIndexEnd
												{
													OFFSET 2.759619 -0.180538 -0.113024
													CHANNELS 3 Zrotation Yrotation Xrotation
													End Site
													{
														OFFSET 0.000000 0.000000 0.000000
													}
												}
											}
										}
									}
								}
								JOINT LeftHandMiddle1
								{
									OFFSET 3.163499 0.240982 1.000332
									CHANNELS 3 Zrotation Yrotation Xrotation
									JOINT LeftHandMiddle2
									{
										OFFSET 6.190778 -0.259276 -1.002548
										CHANNELS 3 Zrotation Yrotation Xrotation
										JOINT LeftHandMiddle3
										{
											OFFSET 4.356522 -0.000006 0.000000
											CHANNELS 3 Zrotation Yrotation Xrotation
											JOINT LeftHandMiddle4
											{
												OFFSET 2.996875 -0.000006 0.000001
												CHANNELS 3 Zrotation Yrotation Xrotation
												JOINT LeftHandMiddleEnd
												{
													OFFSET 2.304294 -0.294571 -0.031740
													CHANNELS 3 Zrotation Yrotation Xrotation
													End Site
													{
														OFFSET 0.000000 0.000000 0.000000
													}
												}
											}
										}
									}
								}
								JOINT LeftHandRing1
								{
									OFFSET 2.882642 -0.053650 -0.322543
									CHANNELS 3 Zrotation Yrotation Xrotation
									JOINT LeftHandRing2
									{
										OFFSET 5.854542 -0.486203 -1.373841
										CHANNELS 3 Zrotation Yrotation Xrotation
										JOINT LeftHandRing3
										{
											OFFSET 4.350581 0.000001 0.000003
											CHANNELS 3 Zrotation Yrotation Xrotation
											JOINT LeftHandRing4
											{
												OFFSET 2.651323 0.000008 0.000003
												CHANNELS 3 Zrotation Yrotation Xrotation
												JOINT LeftHandRingEnd
												{
													OFFSET 1.936111 0.077685 -0.000070
													CHANNELS 3 Zrotation Yrotation Xrotation
													End Site
													{
														OFFSET 0.000000 0.000000 0.000000
													}
												}
											}
										}
									}
								}
								JOINT LeftHandPinky1
								{
									OFFSET 2.865499 -0.310004 -1.600378
									CHANNELS 3 Zrotation Yrotation Xrotation
									JOINT LeftHandPinky2
									{
										OFFSET 5.087853 -1.331142 -1.771231
										CHANNELS 3 Zrotation Yrotation Xrotation
										JOINT LeftHandPinky3
										{
											OFFSET 3.070976 0.000003 0.000000
											CHANNELS 3 Zrotation Yrotation Xrotation
											JOINT LeftHandPinky4
											{
												OFFSET 1.549667 0.000000 0.000002
												CHANNELS 3 Zrotation Yrotation Xrotation
												JOINT LeftHandPinkyEnd
												{
													OFFSET 1.944894 -0.157801 0.057219
													CHANNELS 3 Zrotation Yrotation Xrotation
													End Site
													{
														OFFSET 0.000000 0.000000 0.000000
													}
												}
											}
										}
									}
								}
							}
						}
					}
				}
				JOINT RightShoulder
				{
					OFFSET -1.380118 23.180309 5.214158
					CHANNELS 3 Zrotation Yrotation Xrotation
					JOINT RightArm
					{
						OFFSET -15.037197 0.000011 -5.545604
						CHANNELS 3 Zrotation Yrotation Xrotation
						JOINT RightForeArm
						{
							OFFSET -28.736639 0.000003 -0.002597
							CHANNELS 3 Zrotation Yrotation Xrotation
							JOINT RightHand
							{
								OFFSET -27.133617 -0.000001 0.002612
								CHANNELS 3 Zrotation Yrotation Xrotation
								JOINT RightHandThumb1
								{
									OFFSET -2.274036 -1.383990 3.163127
									CHANNELS 3 Zrotation Yrotation Xrotation
									JOINT RightHandThumb2
									{
										OFFSET -4.011429 -1.827468 1.640914
										CHANNELS 3 Zrotation Yrotation Xrotation
										JOINT RightHandThumb3
										{
											OFFSET -2.794934 -0.000004 -0.000004
											CHANNELS 3 Zrotation Yrotation Xrotation
											JOINT RightHandThumbEnd
											{
												OFFSET -3.183855 0.000003 -0.000000
												CHANNELS 3 Zrotation Yrotation Xrotation
												End Site
												{
													OFFSET 0.000000 0.000000 0.000000
												}
											}
										}
									}
								}
								JOINT RightHandIndex1
								{
									OFFSET -3.253269 -0.520059 2.282866
									CHANNELS 3 Zrotation Yrotation Xrotation
									JOINT RightHandIndex2
									{
										OFFSET -6.341918 0.012473 0.178265
										CHANNELS 3 Zrotation Yrotation Xrotation
										JOINT RightHandIndex3
										{
											OFFSET -3.654875 -0.000009 -0.000001
											CHANNELS 3 Zrotation Yrotation Xrotation
											JOINT RightHandIndex4
											{
												OFFSET -2.327586 -0.000000 0.000000
												CHANNELS 3 Zrotation Yrotation Xrotation
												JOINT RightHandIndexEnd
												{
													OFFSET -2.761789 -0.180657 -0.113079
													CHANNELS 3 Zrotation Yrotation Xrotation
													End Site
													{
														OFFSET 0.000000 0.000000 0.000000
													}
												}
											}
										}
									}
								}
								JOINT RightHandMiddle1
								{
									OFFSET -3.168106 0.246593 1.001030
									CHANNELS 3 Zrotation Yrotation Xrotation
									JOINT RightHandMiddle2
									{
										OFFSET -6.180829 -0.258836 -1.000896
										CHANNELS 3 Zrotation Yrotation Xrotation
										JOINT RightHandMiddle3
										{
											OFFSET -4.348906 -0.000000 -0.000001
											CHANNELS 3 Zrotation Yrotation Xrotation
											JOINT RightHandMiddle4
											{
												OFFSET -3.000244 -0.000004 -0.000003
												CHANNELS 3 Zrotation Yrotation Xrotation
												JOINT RightHandMiddleEnd
												{
													OFFSET -2.302518 -0.294371 -0.031706
													CHANNELS 3 Zrotation Yrotation Xrotation
													End Site
													{
														OFFSET 0.000000 0.000000 0.000000
													}
												}
											}
										}
									}
								}
								JOINT RightHandRing1
								{
									OFFSET -2.885694 -0.067952 -0.308858
									CHANNELS 3 Zrotation Yrotation Xrotation
									JOINT RightHandRing2
									{
										OFFSET -5.854197 -0.486132 -1.373732
										CHANNELS 3 Zrotation Yrotation Xrotation
										JOINT RightHandRing3
										{
											OFFSET -4.338814 -0.000004 0.000000
											CHANNELS 3 Zrotation Yrotation Xrotation
											JOINT RightHandRing4
											{
												OFFSET -2.654906 -0.000004 0.000004
												CHANNELS 3 Zrotation Yrotation Xrotation
												JOINT RightHandRingEnd
												{
													OFFSET -1.933570 0.077524 -0.000052
													CHANNELS 3 Zrotation Yrotation Xrotation
													End Site
													{
														OFFSET 0.000000 0.000000 0.000000
													}
												}
											}
										}
									}
								}
								JOINT RightHandPinky1
								{
									OFFSET -2.866429 -0.342798 -1.584145
									CHANNELS 3 Zrotation Yrotation Xrotation
									JOINT RightHandPinky2
									{
										OFFSET -5.091370 -1.332054 -1.772385
										CHANNELS 3 Zrotation Yrotation Xrotation
										JOINT RightHandPinky3
										{
											OFFSET -3.062666 -0.000006 0.000000
											CHANNELS 3 Zrotation Yrotation Xrotation
											JOINT RightHandPinky4
											{
												OFFSET -1.546527 0.000005 -0.000002
												CHANNELS 3 Zrotation Yrotation Xrotation
												JOINT RightHandPinkyEnd
												{
													OFFSET -1.945122 -0.157721 0.057211
													CHANNELS 3 Zrotation Yrotation Xrotation
													End Site
													{
														OFFSET 0.000000 0.000000 0.000000
													}
												}
											}
										}
									}
								}
							}
						}
					}
				}
			}
		}
	}
	JOINT LeftLeg
	{
		OFFSET 10.043214 -8.434526 2.595655
		CHANNELS 3 Zrotation Yrotation Xrotation
		JOINT LeftShin
		{
			OFFSET -0.000002 -43.221752 -0.802913
			CHANNELS 3 Zrotation Yrotation Xrotation
			JOINT LeftFoot
			{
				OFFSET 0.000001 -42.155094 -3.481523
				CHANNELS 3 Zrotation Yrotation Xrotation
				JOINT LeftToeBase
				{
					OFFSET 0.000000 -5.059475 13.231529
					CHANNELS 3 Zrotation Yrotation Xrotation
					JOINT LeftToeEnd
					{
						OFFSET -0.009607 -1.647615 6.513017
						CHANNELS 3 Zrotation Yrotation Xrotation
						End Site
						{
							OFFSET 0.000000 0.000000 0.000000
						}
					}
				}
			}
		}
	}
	JOINT RightLeg
	{
		OFFSET -10.047277 -8.295259 2.620317
		CHANNELS 3 Zrotation Yrotation Xrotation
		JOINT RightShin
		{
			OFFSET 0.000001 -43.362209 -0.805556
			CHANNELS 3 Zrotation Yrotation Xrotation
			JOINT RightFoot
			{
				OFFSET 0.000002 -42.117393 -3.478398
				CHANNELS 3 Zrotation Yrotation Xrotation
				JOINT RightToeBase
				{
					OFFSET -0.000001 -5.079609 13.284196
					CHANNELS 3 Zrotation Yrotation Xrotation
					JOINT RightToeEnd
					{
						OFFSET 0.009532 -1.634383 6.460591
						CHANNELS 3 Zrotation Yrotation Xrotation
						End Site
						{
							OFFSET 0.000000 0.000000 0.000000
						}
					}
				}
			}
		}
	}
}
MOTION
Frames: 4
Frame Time: 0.033333
3.124703 99.869331 -3.857981 0.556620 -0.339994 0.610546 0.446235 0.241928 -2.608764 -0.286304 1.011591 -5.666136 -2.013547 -0.987255 8.134996 -1.435741 2.793604 3.162703 -1.271109 -2.390079 -3.498899 1.024251 -3.980343 -3.270872 0.000077 -0.000022 0.000006 -0.009654 0.045380 -0.012932 0.697611 -3.717285 -10.684538 -0.725271 3.808344 -10.657022 -20.713585 -0.248305 13.312102 -48.418530 -9.236068 25.222418 0.444240 -36.936356 -0.274129 4.961004 5.560149 -0.788943 -5.882102 9.861278 0.702590 -10.936860 -0.360575 7.156196 0.000001 8.774814 0.000000 -15.436380 18.374994 6.356357 -1.844031 2.498503 -2.507276 -10.163589 4.678939 4.621105 -20.975994 -0.000005 0.000003 -21.226255 2.451691 -3.593992 0.000001 -0.000006 -0.000000 -1.362679 2.240795 -0.746322 -21.334887 0.584906 3.008319 -13.821197 -0.000003 0.000001 -23.887131 -0.249081 -0.839479 -59.793930 2.592942 -1.401087 -0.294024 1.679686 0.833255 -14.218194 0.093214 1.300578 -34.212006 -0.287568 0.967170 -20.033180 0.964532 1.212843 0.000000 0.000000 0.000000 -3.440386 0.788233 0.501655 -15.928171 -3.167306 2.999701 -6.338817 -0.000001 0.000000 -18.123415 3.648175 -4.905660 -0.000005 0.000000 0.000001 10.830888 6.749807 13.489857 58.186035 8.388748 32.423748 -0.293677 36.601330 -0.280261 1.710236 5.167391 0.756455 2.243540 -5.255032 -3.180156 14.282875 -0.826594 6.952494 -0.000004 -12.690590 0.000000 16.457603 -17.663832 2.255909 1.665664 -1.955920 -2.878295 4.727795 -4.170582 4.993918 11.020512 0.000004 -0.000004 12.109031 -3.735708 -2.866779 -0.000000 -0.000000 0.000000 1.291984 -1.928549 -1.498089 14.800111 0.567469 3.865605 14.242554 -1.341733 -6.660650 19.631939 0.143928 -0.648243 49.729645 -0.952922 -6.454908 0.353028 -1.511150 -0.031939 20.222771 3.684308 2.316627 18.787247 0.000008 0.000000 10.751611 -0.479868 1.397903 0.000000 0.000002 0.000000 3.273803 0.305947 -0.580110 21.486792 11.830364 2.266129 8.162916 0.000001 -0.000002 18.399052 -3.798977 -4.940566 0.000004 -0.000001 -0.000000 5.370524 8.294096 -3.003314 -0.029862 -0.356147 7.915203 -10.151210 2.295724 -4.988296 1.607748 -1.957734 0.098405 0.000000 -0.000000 0.000002 -8.631029 -10.498747 -0.794902 0.031142 0.223512 4.462143 10.072245 -4.493141 -3.246208 -1.402989 0.959048 0.829638 -0.000000 -0.000000 -0.000001 
3.186715 99.871429 -3.640980 0.618962 -0.158206 0.640849 0.389567 0.271485 -2.938068 -0.293992 1.069456 -5.807413 -2.070300 -0.897447 7.768077 -1.344399 2.745911 2.989407 -1.241719 -2.381173 -3.483724 1.104837 -4.095557 -2.860075 0.000077 -0.000022 0.000006 -0.005008 0.063241 0.003457 0.694938 -3.688948 -10.657778 -0.710704 3.822227 -10.631824 -20.966078 0.281120 13.133881 -48.142006 -8.051191 25.242159 0.965254 -38.601391 -0.494289 5.706210 5.651077 0.374292 -5.882101 9.861279 0.702589 -10.936859 -0.360575 7.156196 0.000000 8.774814 0.000001 -15.377239 18.458038 6.550502 -1.844030 2.498503 -2.507279 -10.163589 4.678940 4.621105 -20.975994 -0.000004 0.000002 -21.226254 2.451694 -3.593995 0.000002 -0.000006 -0.000002 -1.362680 2.240796 -0.746322 -21.334887 0.584907 3.008318 -13.821197 -0.000002 0.000003 -23.887129 -0.249077 -0.839479 -60.110355 2.595642 -1.298501 -0.294024 1.679684 0.833256 -14.218192 0.093214 1.300579 -34.212002 -0.287564 0.967171 -20.033178 0.964535 1.212841 0.000001 -0.000000 -0.000000 -3.440384 0.788233 0.501656 -15.928167 -3.167306 2.999704 -6.338816 -0.000002 0.000001 -18.123415 3.648176 -4.905662 -0.000004 -0.000001 -0.000001 11.207668 6.340484 13.800088 57.226460 7.805270 32.542122 -0.077486 37.357792 -0.217862 1.878981 4.931146 2.100775 2.243539 -5.255033 -3.180154 14.282877 -0.826593 6.952496 -0.000003 -12.690590 -0.000001 16.442665 -17.609068 2.219224 1.665665 -1.955919 -2.878298 4.727792 -4.170582 4.993917 11.020513 0.000003 -0.000001 12.109033 -3.735710 -2.866778 0.000000 0.000000 0.000000 1.291983 -1.928548 -1.498089 14.800113 0.567468 3.865603 14.242554 -1.341733 -6.660646 19.631939 0.143927 -0.648242 49.552444 -0.960646 -6.415344 0.353027 -1.511149 -0.031939 20.222771 3.684307 2.316628 18.787245 0.000006 -0.000001 10.751612 -0.479868 1.397903 0.000000 0.000002 0.000000 3.273805 0.305947 -0.580110 21.486792 11.830362 2.266130 8.162916 0.000002 -0.000002 18.399054 -3.798979 -4.940570 0.000004 -0.000002 -0.000002 5.292609 8.071945 -2.752543 -0.057566 -0.355808 7.610701 -10.130740 2.289555 -4.967358 1.604173 -1.955596 0.070261 0.000000 0.000000 0.000002 -8.731961 -10.330892 -0.370437 0.017458 0.134373 4.073923 10.131010 -4.767741 -3.301787 -1.390820 0.943460 0.589317 -0.000000 -0.000000 -0.000001 
3.217822 99.899933 -3.224911 0.706463 0.043550 0.751032 0.324764 0.306045 -3.413253 -0.296656 1.078647 -5.959947 -2.139307 -0.786239 7.118293 -1.243682 2.665937 2.472557 -1.254373 -2.237348 -3.538412 1.384538 -4.329615 -2.002596 0.000077 -0.000023 0.000006 -0.007945 0.071201 0.003371 0.678573 -3.671148 -10.662683 -0.701452 3.818111 -10.642980 -21.280706 1.383350 12.785025 -47.622746 -5.469262 24.663843 2.057709 -42.400742 -1.024993 7.027918 5.407557 1.652883 -5.882102 9.861279 0.702590 -10.936859 -0.360575 7.156197 0.000001 8.774813 0.000000 -15.382482 18.473398 6.657589 -1.844031 2.498504 -2.507276 -10.163590 4.678940 4.621104 -20.975994 -0.000002 0.000001 -21.226255 2.451694 -3.593994 0.000001 -0.000006 -0.000002 -1.362680 2.240795 -0.746322 -21.334887 0.584908 3.008318 -13.821197 -0.000004 0.000000 -23.887133 -0.249077 -0.839482 -60.294666 2.587663 -1.227978 -0.294025 1.679687 0.833254 -14.218195 0.093215 1.300579 -34.212006 -0.287564 0.967166 -20.033180 0.964535 1.212842 0.000000 -0.000000 0.000000 -3.440385 0.788233 0.501655 -15.928169 -3.167306 2.999703 -6.338817 -0.000001 0.000000 -18.123415 3.648176 -4.905662 -0.000004 0.000000 -0.000001 11.526898 5.500771 14.119872 56.072399 6.197229 32.038857 -0.372647 39.318657 -0.371039 1.847403 4.665216 3.364918 2.243540 -5.255032 -3.180156 14.282877 -0.826594 6.952497 -0.000002 -12.690590 0.000001 16.412136 -17.694365 2.221556 1.665666 -1.955920 -2.878296 4.727793 -4.170584 4.993917 11.020513 0.000001 0.000000 12.109032 -3.735711 -2.866779 -0.000000 -0.000000 -0.000001 1.291985 -1.928548 -1.498089 14.800117 0.567467 3.865602 14.242556 -1.341736 -6.660649 19.631947 0.143924 -0.648245 49.572578 -1.024876 -6.437632 0.353028 -1.511150 -0.031941 20.222771 3.684303 2.316628 18.787249 0.000004 -0.000002 10.751612 -0.479869 1.397902 0.000001 0.000003 0.000001 3.273803 0.305946 -0.580111 21.486790 11.830361 2.266131 8.162917 0.000001 -0.000002 18.399052 -3.798981 -4.940569 0.000004 0.000000 -0.000002 5.253786 7.934792 -2.016527 -0.073355 -0.336994 6.524423 -10.326411 2.184108 -4.712468 1.598789 -1.927560 0.122360 0.000000 0.000000 0.000002 -8.805764 -10.049087 0.434968 0.017551 0.071348 3.210682 10.179515 -5.202232 -3.303265 -1.378836 0.950648 0.464805 -0.000000 -0.000000 -0.000001 
3.257483 99.871750 -2.582303 0.685463 0.005336 1.029013 0.332910 0.377893 -4.023481 -0.281030 1.122027 -6.080252 -2.117706 -0.756215 5.930098 -1.431282 2.636945 1.377437 -1.254602 -1.860182 -3.649020 1.883371 -4.640326 -0.658473 0.000077 -0.000022 0.000006 -0.008123 0.099699 -0.031632 0.680835 -3.620460 -10.698951 -0.704974 3.822631 -10.676493 -21.072735 3.562292 12.049729 -47.847767 -0.077146 21.727818 3.920973 -49.907177 -1.947197 9.523639 4.287877 1.080906 -5.882101 9.861278 0.702590 -10.936860 -0.360576 7.156198 -0.000000 8.774814 -0.000002 -15.292721 18.360006 6.724280 -1.844033 2.498502 -2.507274 -10.163589 4.678941 4.621104 -20.975998 -0.000003 0.000001 -21.226257 2.451692 -3.593995 0.000001 -0.000006 0.000001 -1.362680 2.240797 -0.746321 -21.334892 0.584909 3.008320 -13.821197 -0.000002 0.000000 -23.887135 -0.249078 -0.839479 -60.169395 2.629129 -1.178486 -0.294024 1.679685 0.833256 -14.218192 0.093214 1.300579 -34.212006 -0.287565 0.967169 -20.033180 0.964533 1.212841 0.000001 0.000001 0.000002 -3.440385 0.788233 0.501657 -15.928169 -3.167306 2.999705 -6.338817 -0.000001 -0.000002 -18.123415 3.648178 -4.905659 -0.000004 -0.000000 -0.000002 11.172538 4.116866 14.210708 55.550060 2.385274 29.290066 -1.362231 43.251740 -0.838710 0.981155 4.313582 3.293952 2.243541 -5.255032 -3.180156 14.282878 -0.826593 6.952495 -0.000003 -12.690588 -0.000001 16.411297 -17.788338 2.215954 1.665664 -1.955919 -2.878298 4.727794 -4.170583 4.993918 11.020514 0.000004 0.000001 12.109033 -3.735708 -2.866781 0.000001 -0.000000 0.000002 1.291983 -1.928548 -1.498086 14.800114 0.567468 3.865603 14.242553 -1.341732 -6.660651 19.631939 0.143928 -0.648243 49.549587 -1.015403 -6.504532 0.353027 -1.511148 -0.031941 20.222773 3.684308 2.316627 18.787247 0.000007 -0.000001 10.751610 -0.479867 1.397903 0.000000 0.000001 0.000000 3.273806 0.305946 -0.580109 21.486797 11.830362 2.266131 8.162916 -0.000000 -0.000002 18.399057 -3.798978 -4.940570 0.000004 -0.000001 -0.000001 5.292959 8.283638 -1.983279 -0.073568 -0.357285 6.748895 -10.589900 2.004466 -5.103757 1.601728 -1.924431 0.160252 0.000000 0.000001 0.000002 -8.798647 -9.674255 0.800572 0.024199 0.043825 2.967955 10.443774 -5.457412 -3.632534 -1.372245 0.966443 0.358665 -0.000000 -0.000000 -0.000001 
